<?xml version="1.0" encoding="UTF-8" standalone="no"?>
<svg viewBox="0 0 651.51453 651.51453" xmlns="http://www.w3.org/2000/svg">
<defs>
<radialGradient cx="253.46059" cy="238.05264" gradientTransform="matrix(1.18254,-2.8699119e-8,2.8699119e-8,1.18254,-46.26705,-43.45445)" gradientUnits="userSpaceOnUse" id="radialGradient6325" r="210.81836">
<stop offset="0" stop-color="#fff"/>
<stop offset="1" stop-opacity="0"/>
</radialGradient>
</defs>
<g transform="translate(-44.8036,69.21514)">
<path d="m463.77895,238.05264c0,116.15563-94.16274,210.31836-210.31836,210.31836s-210.31836-94.16273-210.31836-210.31836 94.16273-210.31836 210.31836-210.31836 210.31836,94.16274 210.31836,210.31836z" stroke="#fff" transform="matrix(1.48602,0,0,1.48602,-6.85801,-97.98018)"/>
<path d="m463.77895,238.05264c0,116.15563-94.16274,210.31836-210.31836,210.31836s-210.31836-94.16273-210.31836-210.31836 94.16273-210.31836 210.31836-210.31836 210.31836,94.16274 210.31836,210.31836z" fill="url(#radialGradient6325)" transform="matrix(1.54888,0,0,1.54888,-22.0184,-112.17213)"/>
<path d="m393.34168,226.24192 2.20308,9.7543c14.97412-3.6202 28.85678-10.94275 40.4049-20.86132 11.55653-9.90847 20.82483-22.45415 26.59057-36.49924 3.63799-8.90715 5.83469-17.93925 9.21643-26.20281 3.4347-8.20218 8.07085-16.04819 15.12354-20.61394 7.30574-4.96805 17.00223-6.09648 26.41822-5.62696 9.44458.52545 18.98979,2.71955 28.85067,3.63992h1e-005c21.88201,2.03491 44.21906-2.62049 63.31793-13.08345s34.86951-26.68817 44.74797-45.87191c-10.45393,18.87632-26.61134,34.44162-45.66264,44.14145s-40.96387,13.52387-61.9826,10.92195c-9.48259-1.17033-18.96392-3.65148-28.92454-4.53258-9.98426-.93666-20.74514.11428-29.8253,5.62712-8.53325,5.40347-14.23802,14.02475-18.05968,22.84174-3.87607,8.75898-6.36031,17.75842-9.98735,25.87073-5.66711,12.73811-14.56437,23.98602-25.37943,32.72055-10.82347,8.72442-23.62011,14.97899-37.05178,17.77445z" fill="#fff" fill-rule="evenodd"/>
<path d="m397.20005,272.70396 3.7311,9.27786c20.89917-8.82208 45.75292-8.86495 66.93036.0957 21.1881,8.9365 38.76458,26.91331 47.24236,48.62264 4.72948,12.03846 6.78795,25.40986 11.34031,38.24286v1e-005c8.01756,22.55076 23.76202,42.10394 43.83113,54.67922 20.0711,12.57225 44.32153,18.07678 67.61333,15.50402-23.3599,1.85523-47.18017-4.41047-66.43762-17.31869s-33.90338-32.41444-40.91064-54.2511c-4.00226-12.43969-5.64078-25.83456-10.23081-38.79684-8.34415-23.41759-26.43793-43.28015-49.30635-53.79717-22.87907-10.4929-50.01983-11.40552-73.80317-2.25849z" fill="#fff" fill-rule="evenodd"/>
<path d="m381.3494,302.09828-7.70982-6.36856c-8.61346,10.93182-14.55158,23.74094-17.56975,37.11836-3.0277,13.37503-3.14408,27.36217-.13297,40.64741 3.48896,15.16825 10.50797,28.76822 16.29381,42.52367l1e-005,1e-005c5.7235,13.76233 10.44925,28.33594 8.90378,43.01199-1.39666,13.57206-8.34143,26.6805-19.04791,35.56366 11.11589-8.36517 18.88727-21.29298 21.01273-35.31286 2.26037-15.13849-1.79009-30.54354-7.03156-44.76622-5.18025-14.23244-11.49827-27.97764-13.99466-42.26703v-1e-005c-2.21556-12.43848-1.4539-25.33805 1.8848-37.42862 3.34823-12.08818 9.28795-23.41583 17.39154-32.7218z" fill="#fff" fill-rule="evenodd"/>
<path d="m356.16586,306.23177-9.72974-2.30918c-2.92303,13.72042-10.69457,26.60127-21.67567,35.6781-10.97272,9.08744-25.25219,14.44366-39.71455,14.75886-11.95756.31331-24.10454-2.84576-36.471-5.32517-36.72578-7.42287-74.54652-8.71712-111.44425-3.89656 37.06634-3.28133 74.54436-.39232 110.43005,8.42978 12.08012,2.98989 24.39375,6.69564 37.48711,7.00119h1e-005c15.89706.30579 31.89771-4.86815 44.7394-14.61071 12.8333-9.75318 22.29116-23.90781 26.37864-39.72631z" fill="#fff" fill-rule="evenodd"/>
<path d="m321.75139,269.10825 9.7938-2.02024c-2.53054-11.40375-9.4385-21.55206-18.98782-28.05534-9.56351-6.48302-21.43763-9.09269-32.71959-7.28322h-2e-005c-6.47906,1.07802-12.45679,3.43427-17.98582,6.1775-5.5905,2.75136-10.81033,5.82742-16.0676,8.49451-5.22915,2.63204-10.52239,4.91982-15.98556,5.98919h-2e-005c-5.4435,1.05162-11.12997,1.02181-16.09539-.89019-5.39681-1.94291-10.05114-6.20288-14.79255-10.54726-4.68982-4.4216-9.74763-9.12909-16.14723-11.964-4.95989-2.12974-10.33845-2.88536-15.56638-2.63281-5.22155.2488-10.28811,1.41543-15.11678,3.02323h-2e-005c-9.65573,3.20963-18.43359,8.04446-27.70122,11.18454-13.86532,4.70759-29.07067,5.66935-43.53535,2.69135s-28.17674-9.89216-39.2424-19.8604c10.75088,10.30695 24.33228,17.73078 38.94147,21.21458s30.20146,3.01481 44.6865-1.40459c9.67037-2.95674 18.63998-7.53267 27.96197-10.29508 4.66008-1.37817 9.41411-2.33089 14.13525-2.39125 4.71424-.0566 9.42691.73632 13.53712,2.69017 5.37869,2.46796 9.79717,6.99307 14.42568,11.5167 4.57677,4.60072 9.65437,9.3813 16.2663,12.19586 6.20581,2.51368 13.01431,2.86304 19.39122,1.75577h2e-005c6.35875-1.08979 12.31211-3.39281 17.8842-6.02888 5.60237-2.6295 10.90055-5.53549 16.23271-7.94952l2e-005-1e-005c5.27557-2.36633 10.60147-4.32556 15.94724-4.98539h2e-005c9.2186-1.2034 18.95344,1.30131 26.36504,6.70087 7.42579,5.3793 12.71965,13.78414 14.37519,22.67391z" fill="#fff" fill-rule="evenodd"/>
<path d="m389.46069,230.57375 6.88346,7.25382c10.83225-10.71454 18.34974-24.50679 21.49711-39.22443 3.13986-14.7194 1.87218-30.19749-3.5051-44.05571-3.66739-9.37942-8.98562-17.7457-14.31785-25.82735-5.32676-8.11384-10.72926-16.056-14.64549-24.68144-5.76889-12.65216-8.13504-26.91529-7.12335-40.9693 1.01516-14.05368 5.4123-27.979 13.11216-39.95743-8.21566,11.63072-13.31099,25.48899-14.97006,39.78216s.10036,29.09836 5.55093,42.61525c3.71316,9.16987 8.87946,17.57785 13.83861,25.86769 4.92759,8.28046 9.72244,16.54954 12.66663,25.31591v1e-005c4.3717,12.89832 4.85874,27.04645 1.47618,40.04731s-10.63855,24.94584-20.46323,33.83351z" fill="#fff" fill-rule="evenodd"/>
<path d="m340.3718,223.44425 9.53204,3.0233c3.04768-10.20883 3.4247-21.03475 1.38551-31.32099-2.02425-10.28894-6.47431-20.08166-13.06371-28.2289-6.60651-8.13384-15.21057-14.44583-24.71314-18.49441-9.49778-4.05933-19.93641-5.87229-30.20505-5.02795-7.15113.6061-13.81333,2.32822-20.33752,2.90292-6.49007.49979-13.19609.0199-18.24847-3.35688-2.59264-1.65776-4.78158-4.04839-6.55265-6.74583l-1e-005-1e-005c-1.77102-2.70412-3.09853-5.76008-4.20258-8.93704-2.20058-6.3591-3.44033-13.28477-5.99519-19.94289-5.66146-14.6765-17.77854-26.54934-32.31703-31.90971-14.54097-5.35399-31.24269-4.10179-44.65621,3.17463 13.65515-6.81217 30.17798-7.38896 44.08857-1.71072 13.91306,5.67186 25.10247,17.54821 29.93599,31.5258 2.21128,6.35471 3.18813,13.2389 5.2801,20.05643 1.04221,3.41131 2.39377,6.80565 4.29727,9.976 1.90333,3.17682 4.41667,6.08521 7.56966,8.2999 6.28492,4.26436 14.02916,5.30152 21.17622,4.82667 7.11703-.40023 13.86446-1.89575 20.35907-2.19905 9.25238-.45662 18.59476,1.53176 26.96433,5.44237h1e-005c8.36479,3.92137 15.80484,9.78827 21.27225,17.04869 5.48452,7.247 9.03964,15.93822 10.4984,24.90106 1.44384,8.96555.79935,18.25667-2.06786,26.69661z" fill="#fff" fill-rule="evenodd"/>
<path d="m398.27803,294.41848-7.66964-6.4169c-4.70435,5.9706-7.62655,13.16472-8.44105,20.59573s.51096,14.9616 3.70847,21.57966 8.23433,12.20908 14.34976,16.05555c6.11818,3.84238 13.23446,5.88131 20.33348,5.89669 4.38689.006 8.41439-.70981 12.19361-.41696 4.54901.32365 9.07269,2.0661 12.72677,4.95942 3.65611,2.89093 6.46901,6.95655 7.89117,11.50056s1.46151,9.58335.0507,14.23604-4.26917,8.91973-8.1319,12.03495c4.05964-2.85387 7.27589-6.98108 9.06125-11.71874 1.78438-4.73799 2.12628-10.05562.91261-15.07436-1.21569-5.01819-3.97466-9.68902-7.87648-13.22238s-8.90008-5.88025-14.21333-6.61959c-4.39698-.58841-8.62685-.15402-12.45909-.41696-6.17985-.41991-12.20153-2.62002-17.1125-6.18547-4.91371-3.56136-8.77576-8.52643-10.99834-14.03852-2.22805-5.50964-2.85404-11.64731-1.83364-17.37498 1.0134-5.72865 3.68699-11.15446 7.50814-15.37374z" fill="#fff" fill-rule="evenodd"/>
<path d="m349.09796,288.36105 7.48764-6.62838c-6.51633-7.06827-15.85768-11.03463-25.31493-10.8812-9.45725.19185-18.48965,4.49905-24.53933,11.5678-3.38249,4.03708-5.54941,8.31722-7.9621,11.87177-1.21755,1.76643-2.47508,3.39033-3.90636,4.68808-1.42861,1.28584-2.99324,2.3412-4.64114,2.8725-2.49841.91295-5.56757.65717-8.50144-.20009-2.95736-.88548-5.8221-2.57436-8.71125-4.45743-2.87926-1.90346-5.7956-4.06635-9.04998-5.96072-3.25083-1.91566-6.92142-3.46983-10.91441-4.00439-6.36265-.72089-12.45232,1.25406-17.62691,4.11193-5.17427,2.80936-9.67487,6.30977-14.40614,9.13825h-1e-005c-11.43252,6.8408-25.05742,10.20677-38.53589,9.41926s-26.79755-5.72557-37.64109-14.06601c10.47927,8.79377 23.71365,14.40941 37.50196,15.80511 13.78846,1.39385 28.0573-1.43999 40.40044-8.12552 5.09829-2.76371 9.72615-6.06172 14.60743-8.42718 4.87873-2.31579 10.16489-3.87978 14.99127-2.97534 3.04916.48839 5.99676,1.95289 8.82985,3.72833 2.82977,1.79687 5.54796,4.01129 8.52016,6.15783 2.96226,2.16689 6.24035,4.23693 10.02775,5.62068h2e-005c3.80952,1.41152 8.18055,1.85777 12.48482.68641 2.77871-.82499 5.24156-2.26014 7.29895-4.02097 2.05486-1.74905 3.76532-3.72302 5.24076-5.72275l1e-005-1e-005c2.97332-3.97782 5.17442-7.98816 7.92973-10.88455l1e-005-1e-005c4.71533-5.09177 11.81934-8.05067 18.60289-7.85882 6.78355.15343 13.57861,3.45317 17.82729,8.54542z" fill="#fff" fill-rule="evenodd"/>
<path d="m403.8231,259.72939 8.97452,4.41112c4.34946-9.50872 13.9712-16.97028 24.53559-18.78144 10.55528-1.87192 22.39093,1.8671 30.07966,9.70926 1.91372,1.94343 3.81357,4.38977 6.30463,6.68725 2.47351,2.37656 5.80872,4.32224 9.7582,4.79723h1e-005c4.19177.28508 8.02458-1.24747 10.89469-3.61332 2.8481-2.30913 4.93419-5.07836 6.74339-7.73652 1.83812-2.63118 3.47034-5.17833 5.46627-7.16619 1.99579-1.9437 4.32486-3.54353 6.78389-3.84667 2.46644-.43758 5.24395.44282 7.82918,1.75842h1e-005c2.59108,1.35646 5.03219,3.3272 7.71866,5.19732 12.78275,8.92768 28.40177,13.47722 43.76928,12.88204s30.37404-6.33589 42.09565-15.96008c-12.11374,9.1257-27.17645,14.10436-42.13024,14.05767-14.95375-.0439-29.77371-5.11077-41.49215-14.05413-2.46221-1.8853-4.93739-4.03604-7.90714-5.79234-2.97429-1.79643-6.5848-2.99598-10.44247-2.65986-3.80984.4638-7.14941,2.37679-9.69788,4.81904-2.54948,2.3992-4.50321,5.11405-6.36689,7.60182-1.89256,2.46073-3.71891,4.76879-5.88899,6.29685-2.14575,1.46956-4.62249,2.45721-6.70816,2.06183-2.01711-.17178-4.02605-1.66343-5.91131-3.41235-1.86886-1.82912-3.56165-4.24423-5.76015-6.67429-8.99722-9.90396-22.86091-15.07239-36.39483-13.33093-13.52481,1.80221-25.85796,10.39624-32.25342,22.74827z" fill="#fff" fill-rule="evenodd"/>
<path d="m371.8487,258.5234 5.1284-8.58484c-4.02062-2.2274-7.30443-6.17314-8.77531-10.6389-1.493-4.45912-1.24523-9.68596.72859-14.06999 1.54238-3.6137 4.48941-6.89135 7.67963-10.25285l1e-005-1e-005c3.24353-3.32186 6.87053-6.77909 9.88907-11.06905 4.74036-6.87978 7.05827-15.06326 7.20276-23.14374 .14505-8.065-1.70865-15.95754-4.80677-23.16748-6.21847-14.39251-16.80501-25.92409-27.32014-36.8191-13.87342-14.41639-28.08948-28.48731-42.63062-42.19695 13.88643,14.3724 27.41557,29.07427 40.57224,44.08749 9.93499,11.37052 19.77784,23.09481 24.82264,36.75759 2.53343,6.81753 3.89256,14.05003 3.4014,21.08732-.49163,7.02004-2.78283,13.91837-6.92437,19.26733-2.57027,3.40481-6.06523,6.36752-9.59966,9.71677-3.5876,3.30946-7.22174,7.15148-9.81069,12.10356-3.13803,6.21474-3.8823,13.52437-1.99404,20.3361 1.91038,6.80509 6.3556,12.7795 12.43686,16.58675z" fill="#fff" fill-rule="evenodd"/>
<path d="m333.83219,239.09536-2.04146-9.7894c-13.7741,3.21919-28.73947,2.08748-42.04782-3.29522-13.31208-5.37404-25.05514-15.0396-32.95669-27.27661-3.96037-6.11056-7.07831-13.08814-11.18897-19.73184v-1e-005c-10.30628-16.62648-26.30938-29.41623-44.4922-35.79234-18.18438-6.37196-38.393-6.2767-56.27043.0839 18.13936-5.56986 38.05178-4.69417 55.39299,2.25596s32.08099,19.94919 41.06597,35.99367l1e-005,1e-005c3.60256,6.41913 6.40435,13.512 10.38215,20.3288l1e-005,1e-005c7.99979,13.65844 20.30854,24.82046 34.89901,31.48281 14.5942,6.6537 31.28354,8.72467 47.25743,5.74027z" fill="#fff" fill-rule="evenodd"/>
<path d="m400.88268,277.88215-9.79734,2.00306c5.35048,21.66028 15.46066,41.89238 29.2513,58.91827 11.69556,14.4377 26.00694,26.55351 41.90151,35.60942-15.08243-10.35216-28.09507-23.45851-38.21977-38.34868-11.93843-17.55566-19.85242-37.6129-23.1357-58.18207z" fill="#fff" fill-rule="evenodd"/>
<path d="m372.49645,303.09399-8.49346-5.27838c-4.55583,7.68405-7.72464,16.12952-9.34758,24.84691-1.18549,6.43943-1.5194,12.64119-2.43021,18.45754-.96312,5.78941-2.37901,11.38456-5.41769,15.79271-2.79978,4.24988-7.14843,7.60698-11.98926,10.07049-4.86123,2.46091-10.32445,3.96454-15.93948,5.12261-11.24778,2.26114-23.47927,3.13764-34.63715,8.12472h-1e-005c-14.61097,6.62422-25.45496,20.42782-28.49919,35.82351-3.03054,15.3987 1.82271,31.94241 12.3557,43.10246-10.02548-11.6181-13.91487-28.09334-10.35263-42.66179 3.54855-14.57145 14.4976-27.06895 28.10661-32.49162 10.4148-4.22212 22.19455-4.42115 34.03155-6.31724 5.92729-.92054 11.94546-2.32068 17.68978-4.8666h1e-005c5.76374-2.54287 11.15936-6.40365 15.13945-11.72216 4.08605-5.64693 6.22556-12.2097 7.44605-18.5487 1.27293-6.31277 1.87276-12.45082 3.19557-18.07757 1.77191-7.61352 4.89341-14.89382 9.14194-21.37689z" fill="#fff" fill-rule="evenodd"/>
<path d="m356.72396,291.03704 4.562-8.89878c-7.78555-3.79212-16.7293-4.70258-25.0115-2.62901-8.27813,2.0912-15.60644,7.09783-20.52773,13.92509-3.44023,4.8601-5.56371,10.19268-7.20982,15.36866-1.69586,5.21634-3.01724,10.31593-4.92911,14.99975-4.31459,10.65099-12.03715,20.05461-21.81353,26.41418-9.77342,6.36435-21.6432,9.70873-33.47136,9.33255-11.82837-.37245-23.63363-4.46836-33.26093-11.64093s-17.06869-17.41323-20.92196-28.96423c3.33081,11.71234 10.3515,22.44267 19.91232,30.2571s21.60854,12.66426 34.09107,13.62392 25.29957-1.98728 36.23787-8.42209c10.93534-6.4396 19.8786-16.30287 25.24686-27.991 2.33891-5.12308 3.96173-10.3357 5.78456-15.21209l1e-005-1e-005c1.8336-4.80496 3.82754-9.3735 6.7292-12.96965 4.01134-5.08346 9.92684-8.69818 16.15559-9.95473 6.22469-1.27418 12.96337-.23858 18.42646,2.76127z" fill="#fff" fill-rule="evenodd"/>
<path d="m371.11051,268.39651 9.68636,2.48482c2.42854-10.58273 8.80309-20.45906 17.6325-27.10525 5.12339-3.90015 11.23464-6.76775 17.59028-9.38514 6.4186-2.61918 13.16024-4.96393 19.77568-7.97966h1e-005c23.00955-10.51626 42.08031-28.85824 53.41628-51.05193 11.33114-22.1963 14.83575-48.06239 10.00558-72.12616 3.75941,24.25412-.94275,49.56612-12.87827,70.57933-11.93069,21.0158-31.0691,37.69678-53.12655,46.6064l-2e-005,1e-005c-6.35577,2.57544-13.08157,4.57639-19.85728,6.9994-6.73357,2.38463-13.55016,5.2711-19.81643,9.53327-10.78152,7.40783-18.86161,18.65751-22.42814,31.44491z" fill="#fff" fill-rule="evenodd"/>
<path d="m385.19844,288.89883c0,28.50706-23.10954,51.6166-51.61659,51.6166s-51.61659-23.10954-51.61659-51.6166 23.10953-51.61659 51.61659-51.61659 51.61659,23.10954 51.61659,51.61659z" fill="#fff" transform="translate(30.81588,-30.81588)"/>
<path d="m366.1448,228.37771 7.29142-6.84362c-23.89869-24.44431-40.1263-56.7383-45.42687-90.95732-.58298-4.15824-1.23483-8.86721-3.6405-13.23165-2.71155-4.60421-7.13038-7.7779-11.91328-9.36205-4.75176-1.58121-9.70871-1.81592-14.43273-1.3603-9.43676.88005-18.10719,4.1155-26.84041,4.24709-6.55811.12383-13.19535-1.47467-19.03217-4.61796s-10.88732-7.83669-14.46991-13.49784-5.70225-12.29327-6.05162-19.05392 1.07038-13.64642 4.11272-19.77236c-3.28,6.00205-5.00232,12.88857-4.91636,19.79798s1.98094,13.82099 5.47954,19.86097 8.58794,11.18186 14.65945,14.7655 13.09406,5.58683 20.21291,5.73381c9.45964.16238 18.45136-2.74023 27.15889-3.18901 4.34751-.20876 8.68202.1322 12.49153,1.62319h1e-005c3.77557,1.48703 7.16586,4.06444 8.85555,7.4169 1.72011,3.09424 1.96825,7.13181 2.52266,11.42107 4.10531,35.63925 19.59814,70.06754 43.93917,97.01952z" fill="#fff" fill-rule="evenodd"/>
<path d="m383.05688,227.74903-1.88002,9.82168c12.39506,2.11911 25.23603.73952 36.78378-3.87765s21.66417-12.43252 29.01005-22.29607c7.34161-9.86686 11.83583-21.69011 12.92665-33.80136v-2e-005c1.08658-12.11172-1.24042-24.40898-6.5829-35.17882-2.91987-5.86253-6.59466-11.11953-9.9009-16.45936l-1e-005-1e-005c-3.28845-5.34663-6.2888-10.86146-7.68123-16.82314-2.20571-9.31141-.31799-19.68236 5.18086-27.73663 5.49478-8.05717 14.56956-13.74547 24.40657-15.14351-9.88718.98236-19.37585,6.3039-25.4287,14.41343s-8.55521,18.87225-6.61561,28.99088c1.25423,6.44386 4.13005,12.40111 7.28307,17.98195 3.13534,5.58783 6.5465,10.91752 9.03225,16.53048 4.57217,10.27777 6.21628,21.79841 4.75314,32.81245v1e-005c-1.4589,11.01451-6.02936,21.5719-12.94967,30.08708s-16.22383,15.05056-26.44539,18.64308c-10.21927,3.59863-21.43596,4.29047-31.89194,2.03554z" fill="#fff" fill-rule="evenodd"/>
<path d="m405.60631,247.53907-6.91824,7.22066c8.82513,8.19193 19.74221,13.95564 31.3809,16.62556 11.64002,2.66453 23.8798,2.20606 35.19977-1.26747 11.31862-3.47818 21.60996-9.93954 29.61155-18.53146l1e-005-1e-005c7.99859-8.5948 13.63942-19.24838 16.25473-30.59149 .95669-4.03973 1.43145-7.86379 2.95322-10.96637 .74841-1.54761 1.68515-2.95738 2.87732-3.97661 1.18038-1.00566 2.60367-1.74016 4.01709-1.86343 .99141-.11725 2.07166.05 3.11397.40476 1.04694.35792 2.06182.95538 3.02088,1.6844 1.93273,1.45043 3.53738,3.55468 5.2265,5.75791 1.6646,2.22605 3.45468,4.60599 5.81204,6.61094l1e-005,1e-005c2.36365,2.04394 5.46617,3.48896 8.8381,3.47721 1.93053-.0514 3.76995-.60484 5.37582-1.49758 1.60171-.88905 2.97881-2.05865 4.1368-3.36324l1e-005-2e-005c2.30353-2.61245 3.82002-5.60615 5.28049-8.42712 1.48622-2.80171 2.96319-5.52775 5.09544-7.53493 1.05928-1.00617 2.25832-1.85131 3.56885-2.37696 1.30623-.5233 2.73403-.76176 4.08748-.56938 1.18748.15389 2.3607.64842 3.43735,1.32552l2e-005,1e-005c1.07819.68038 2.05589,1.57176 2.97552,2.54933l1e-005,1e-005c1.83683,1.95929 3.42006,4.31643 5.46798,6.37862 3.15757,3.16667 7.2566,5.33221 11.60599,6.15994h1e-005c4.34966.82636 8.91368.30793 12.93143-1.44373s7.4619-4.72668 9.76819-8.40148c2.3059-3.67506 3.46227-8.03254 3.29595-12.32344 .0222,4.29407-1.27985,8.56582-3.65848,12.08746s-5.8293,6.2887-9.7384,7.83888-8.27657,1.88642-12.33556.97158h-1e-005c-4.05927-.91348-7.81856-3.07854-10.6241-6.09075-1.8323-1.95842-3.31101-4.33941-5.22042-6.52586-.95348-1.09529-2.02858-2.13373-3.28003-2.99542l-1e-005-1e-005c-1.25289-.86491-2.69868-1.51887-4.27136-1.79634-1.8022-.30079-3.64584-.0776-5.32129.54409-1.67137.6194-3.17342,1.58627-4.46207,2.74576-2.56366,2.32417-4.33199,5.24386-5.90153,8.05236-1.59533,2.7893-3.07054,5.53855-5.09727,7.62312l-1e-005,1e-005c-1.00711,1.04388-2.125,1.94293-3.34451,2.55177s-2.53357.96679-3.79701.93748c-2.20766.0268-4.43059-1.2128-6.28794-2.81805l-1e-005-1e-005c-1.86523-1.64562-3.36487-3.8504-4.99164-6.13254l-1e-005-1e-005c-1.60225-2.30494-3.38284-4.73145-5.80799-6.76895-1.21987-1.01493-2.61985-1.88691-4.18716-2.50612s-3.31089-.93146-5.10073-.81815c-2.55421.20565-4.90943,1.241-6.77997,2.79309-1.85924,1.53892-3.27876,3.44719-4.29993,5.46662l-1e-005,2e-005c-2.01755,4.03177-2.76915,8.22171-3.72515,11.91291l-1e-005,1e-005c-2.73959,10.30094-8.23656,19.83915-15.68893,27.31941l-1e-005,1e-005c-7.44939,7.48314-16.89325,12.94997-26.9898,15.67909s-20.91045,2.75007-30.92299.0942c-10.01387-2.65049-19.30632-7.9924-26.58085-15.22581z" fill="#fff" fill-rule="evenodd"/>
<path d="m349.41713,258.26659 9.9309,1.17354c1.73427-17.13088-2.13175-34.59977-10.79018-49.26891-8.66821-14.66357-22.00869-26.32074-37.51047-32.92374-8.37525-3.54639-17.13041-5.61136-25.80061-7.17896-8.7185-1.58777-17.39382-2.72531-25.87164-4.46157-22.12697-4.5229-43.42083-13.44518-62.45313-25.91354s-35.83896-28.50909-49.0058-47.24578c12.50519,19.18462 28.83021,35.93236 47.65716,49.22746s40.18934,23.16598 62.75823,28.61102c8.63487,2.08016 17.32082,3.53224 25.79486,5.38335 8.41832,1.85048 16.68177,4.08337 24.22528,7.62881l1e-005,1e-005c13.95432,6.51974 25.70898,17.61319 32.98053,30.98161 7.28134,13.36285 10.13492,29.09341 8.08486,43.9867z" fill="#fff" fill-rule="evenodd"/>
<path d="m353.35684,275.57181 8.21464-5.7026c-11.1788-15.61989-28.15815-26.68081-46.74929-30.6202-18.59584-3.91859-38.39806-.62821-54.58725,8.92995-10.84955,6.45749-19.55691,15.09715-29.17486,21.79138l-2e-005,1e-005c-4.81309,3.33546-9.86631,6.24494-15.25874,8.05338-5.38293,1.79885-11.13789,2.57671-16.6047,1.62094-6.02112-.98338-11.71739-4.10532-17.09456-7.72-5.36717-3.64363-10.51603-7.9098-16.27912-11.48762l-2e-005-1e-005c-17.62065-10.90844-39.79961-13.79779-59.40059-7.93522-19.5989,5.86987-36.29015,20.39029-44.79058,38.70822 9.03432-18.06058 26.02264-31.84977 45.27568-36.99761 19.25097-5.15515 40.59891-1.62928 56.99953,9.22043 5.38886,3.55437 10.34707,7.92554 15.81916,11.88088 5.46152,3.9839 11.61208,7.52092 18.60206,8.97213 6.38282,1.26148 12.98227.62392 19.07808-1.26082 6.08716-1.87541 11.7029-4.85554 16.88658-8.25925l1e-005-1e-005c10.3759-6.78432 19.26386-15.12628 29.34211-20.64595 14.90715-8.23855 32.979-10.62827 49.33208-6.65517 16.35777,3.9523 31.13682,14.29494 40.3898,28.10714z" fill="#fff" fill-rule="evenodd"/>
<path d="m397.88706,264.7798 2.35708,9.71824c12.09735-3.29537 26.24806-.32105 36.17879,7.84804 9.96654,8.12751 15.90252,21.6299 15.02665,34.78229v1e-005c-.28848,4.62649-1.4411,9.50936-1.8835,14.74482-.51395,5.25875.0151,11.02029 2.85037,15.99986 1.6695,2.79629 3.97073,5.06065 6.53095,6.7907h1e-005c2.55244,1.72958 5.30716,2.98486 8.07592,3.96492h1e-005c5.53096,1.96885 11.09949,2.97114 16.12631,4.99874 11.13821,4.45392 20.2219,14.37568 23.66444,26.14699 3.45158,11.76888 1.22419,25.28248-6.0561,35.48469 7.72773-9.86763 10.71732-23.4832 7.67496-35.91902-3.05141-12.4334-12.06372-23.3861-23.96408-28.7944-5.35435-2.41631-10.96171-3.70237-15.9827-5.75516-2.50716-1.03074-4.89031-2.23322-6.93638-3.77967-2.03808-1.54584-3.79374-3.40539-4.89788-5.52669-2.05242-3.68619-2.10726-8.4001-1.58761-13.03665 .59144-4.66204 1.95876-9.4833 2.55448-14.76881v-1e-005c1.65243-15.19041-4.31644-31.02788-15.91247-41.46815-11.63184-10.39868-28.26302-14.84251-43.81925-11.43074z" fill="#fff" fill-rule="evenodd"/>
<path d="m343.59701,228.80788c0,11.48792-9.3128,20.80071-20.80071,20.80071s-20.80072-9.31279-20.80072-20.80071 9.3128-20.80072 20.80072-20.80072 20.80071,9.3128 20.80071,20.80072z" transform="matrix(1.62963,0,0,1.62963,-162.41107,-117.10032)"/>
<path d="m343.59701,228.80788c0,11.48792-9.3128,20.80071-20.80071,20.80071s-20.80072-9.31279-20.80072-20.80071 9.3128-20.80072 20.80072-20.80072 20.80071,9.3128 20.80071,20.80072z" fill="#fff" transform="matrix(.61111,0,0,.61111,167.13333,115.55954)"/>
<path d="m343.59701,228.80788c0,11.48792-9.3128,20.80071-20.80071,20.80071s-20.80072-9.31279-20.80072-20.80071 9.3128-20.80072 20.80072-20.80072 20.80071,9.3128 20.80071,20.80072z" fill="#fff" transform="matrix(.23148,0,0,.23148,299.49893,189.90285)"/>
<path d="m463.77895,238.05264c0,116.15563-94.16274,210.31836-210.31836,210.31836s-210.31836-94.16273-210.31836-210.31836 94.16273-210.31836 210.31836-210.31836 210.31836,94.16274 210.31836,210.31836z" fill="none" stroke="#fff" transform="matrix(1.24118,0,0,1.24118,55.96947,-40.46596)"/>
</g>
</svg>
